<svg width="599" height="715" viewBox="0 0 599 715" fill="none" xmlns="http://www.w3.org/2000/svg">
<g clip-path="url(#clip0_126_9)">
<path d="M423.597 306.229C439.063 306.083 451.951 314.386 461.689 327.203C464.123 330.408 465.842 333.904 465.985 338.128C466.271 344.245 464.41 348.032 459.971 349.635C455.245 351.382 450.949 349.78 447.798 344.391C443.216 336.234 436.056 331.865 427.75 329.097C424.743 328.223 421.592 328.077 418.442 327.349C412.857 326.038 408.704 321.232 408.704 316.134C408.704 310.162 411.281 307.394 417.153 306.812C419.301 306.666 421.306 306.229 423.597 306.229Z" fill="#23353D"/>
<path d="M463.98 284.963C463.837 285.691 463.837 287.002 463.551 288.168C462.691 292.392 459.111 296.179 455.245 296.47C451.092 296.761 447.941 294.576 446.223 290.935C444.361 287.148 443.072 283.07 441.354 279.137C437.631 270.834 430.9 265.591 423.883 260.493C419.73 257.58 418.441 252.482 420.446 247.675C422.308 243.16 426.318 240.975 431.473 242.431C442.213 245.345 449.946 252.773 455.961 261.658C460.686 268.358 463.98 275.932 463.98 284.963Z" fill="#21343A"/>
<path d="M462.262 386.923C461.259 381.825 458.252 377.746 455.818 373.522C451.235 365.802 444.934 361.433 436.915 356.626C427.606 350.945 417.582 351.091 407.272 350.945C403.978 350.945 392.378 352.693 388.369 354.878C383.5 357.646 382.641 364.346 385.934 368.861C389.085 373.231 393.524 372.794 397.534 371.92C406.412 370.026 415.148 370.9 423.454 373.668C433.335 377.018 439.492 384.446 443.216 394.351C445.936 401.779 448.944 403.382 456.247 401.634C461.546 399.303 463.694 394.205 462.262 386.923Z" fill="#283739"/>
<path d="M536.298 168.147C535.582 166.69 535.152 165.962 533.147 164.505C531.286 163.049 523.839 163.194 520.975 164.36C517.395 165.816 517.109 169.458 517.109 172.808C517.109 183.004 516.965 204.998 517.109 214.757C519.113 214.32 518.541 215.922 520.116 216.505C520.402 216.65 520.832 216.65 521.118 216.65C521.118 217.524 521.405 218.398 521.834 219.272C525.987 223.059 527.562 228.303 529.854 233.255C531.715 234.42 531.429 236.314 531.715 238.062C532.431 242.723 531.572 247.384 532.002 252.19C532.288 253.21 532.575 254.521 534.15 254.375C536.298 250.006 536.584 240.538 536.584 240.538L536.871 175.721C537.014 175.721 537.587 170.332 536.298 168.147Z" fill="#233440"/>
<path d="M512.526 280.011C501.929 276.224 495.055 269.378 493.05 257.725C492.191 252.482 492.621 247.238 492.334 241.994C492.191 237.333 489.47 233.692 485.89 233.401C483.169 233.255 480.735 233.692 480.735 233.692C476.439 234.42 475.58 237.77 475.293 241.266C475.007 246.655 474.577 252.19 475.436 257.434C476.152 262.678 476.152 266.902 480.305 276.078C485.317 287.294 494.769 293.848 505.939 297.781C507.084 297.927 511.524 299.237 512.24 298.363C513.385 294.576 512.097 289.77 515.104 287.002C516.536 285.691 519.973 284.089 518.97 281.759C517.252 281.467 514.101 280.593 512.526 280.011Z" fill="#223137"/>
<path d="M561.215 238.79C561.072 234.566 557.635 232.381 553.339 231.944C548.9 231.507 546.179 234.42 545.176 237.77C544.46 239.955 545.033 242.431 545.176 244.762C545.463 253.938 544.604 262.823 539.019 270.543C534.579 275.058 529.424 278.7 523.41 280.739C521.691 281.322 518.827 281.613 516.822 281.759C516.106 284.235 520.402 287.439 522.264 288.313C526.99 288.75 523.839 295.305 526.703 297.635C533.863 298.946 546.036 292.246 550.905 285.691C552.766 283.215 555.917 277.68 557.062 275.35C562.79 263.843 561.788 251.316 561.215 238.79Z" fill="#223137"/>
<path d="M512.096 348.178C501.499 344.391 494.626 337.545 492.621 325.893C491.762 320.649 492.191 315.405 491.905 310.162C491.762 305.501 489.041 301.859 485.461 301.568C482.74 301.422 480.305 301.859 480.305 301.859C476.009 302.588 475.15 305.938 474.864 309.433C474.577 314.823 474.148 320.358 475.007 325.601C475.723 330.845 475.723 335.069 479.876 344.245C484.888 355.461 494.339 362.015 505.509 365.948C506.655 366.094 511.094 367.405 511.81 366.531C512.956 362.744 511.667 357.937 514.674 355.169C516.106 353.859 519.543 352.256 518.541 349.926C516.822 349.635 513.672 348.761 512.096 348.178Z" fill="#223137"/>
<path d="M560.786 306.957C560.642 302.733 557.206 300.548 552.909 300.111C548.47 299.674 545.749 302.587 544.747 305.938C544.031 308.122 544.604 310.599 544.747 312.929C545.033 322.105 544.174 330.99 538.589 338.71C534.15 343.226 528.994 346.867 522.98 348.906C521.262 349.489 518.397 349.78 516.393 349.926C515.677 352.402 519.973 355.606 521.834 356.48C526.56 356.917 523.41 363.472 526.274 365.802C533.434 367.113 545.606 360.413 550.475 353.859C552.337 351.382 555.487 345.847 556.633 343.517C562.361 332.01 561.358 319.484 560.786 306.957Z" fill="#223137"/>
<path d="M518.111 266.319C518.827 266.465 519.257 266.902 519.4 267.484C518.97 267.193 518.541 266.756 518.111 266.319Z" fill="#8B3217"/>
<path d="M516.106 265.154C516.106 265.445 515.963 265.736 515.963 266.028C515.82 265.882 515.677 265.736 515.39 265.591C515.677 265.591 515.963 265.445 516.106 265.154Z" fill="#8B3217"/>
<path d="M202.777 568.847C204.209 567.391 205.641 567.245 206.93 568.847C205.498 568.847 204.066 568.847 202.777 568.847Z" fill="#203537"/>
<path d="M104.969 381.97C111.217 381.97 116.282 376.818 116.282 370.463C116.282 364.108 111.217 358.957 104.969 358.957C98.7213 358.957 93.6562 364.108 93.6562 370.463C93.6562 376.818 98.7213 381.97 104.969 381.97Z" fill="#23363C"/>
<path d="M82.6295 313.22C88.8775 313.22 93.9425 308.069 93.9425 301.714C93.9425 295.359 88.8775 290.207 82.6295 290.207C76.3814 290.207 71.3164 295.359 71.3164 301.714C71.3164 308.069 76.3814 313.22 82.6295 313.22Z" fill="#23363C"/>
<path d="M108.12 172.808C114.368 172.808 119.433 167.656 119.433 161.301C119.433 154.946 114.368 149.794 108.12 149.794C101.872 149.794 96.8066 154.946 96.8066 161.301C96.8066 167.656 101.872 172.808 108.12 172.808Z" fill="#D9520C"/>
<path d="M344.262 61.0892C350.51 61.0892 355.575 55.9374 355.575 49.5824C355.575 43.2273 350.51 38.0755 344.262 38.0755C338.014 38.0755 332.949 43.2273 332.949 49.5824C332.949 55.9374 338.014 61.0892 344.262 61.0892Z" fill="#F8A516"/>
<path d="M233.136 60.6522C239.384 60.6522 244.449 55.5004 244.449 49.1454C244.449 42.7903 239.384 37.6385 233.136 37.6385C226.888 37.6385 221.823 42.7903 221.823 49.1454C221.823 55.5004 226.888 60.6522 233.136 60.6522Z" fill="#F8AF16"/>
<path d="M470.281 172.371C476.529 172.371 481.594 167.219 481.594 160.864C481.594 154.509 476.529 149.357 470.281 149.357C464.033 149.357 458.968 154.509 458.968 160.864C458.968 167.219 464.033 172.371 470.281 172.371Z" fill="#CF4B0C"/>
<path d="M135.901 385.029C132.035 403.236 138.049 415.326 138.049 415.326C138.049 415.326 161.105 418.53 172.848 405.13C192.467 382.553 177.86 337.399 177.86 337.399C177.86 337.399 170.843 345.265 160.962 353.422C149.506 362.744 138.909 370.463 135.901 385.029Z" fill="url(#paint0_linear_126_9)"/>
<path d="M136.474 410.956L138.049 415.326C138.049 415.326 161.105 418.53 172.848 405.13C185.163 391.001 184.018 367.987 181.44 352.693C181.44 352.548 181.44 352.402 181.44 352.402C181.44 352.402 174.28 376.144 169.124 383.718C156.809 401.634 136.474 410.956 136.474 410.956Z" fill="url(#paint1_linear_126_9)"/>
<path d="M107.69 320.94C105.399 339.439 112.559 350.945 112.559 350.945C112.559 350.945 135.901 352.111 146.355 337.545C163.969 313.22 145.353 269.523 145.353 269.523C145.353 269.523 139.195 278.117 130.03 287.002C119.147 297.49 109.409 306.083 107.69 320.94Z" fill="url(#paint2_linear_126_9)"/>
<path d="M110.554 346.721L112.559 350.945C112.559 350.945 135.901 352.111 146.355 337.545C157.382 322.397 154.231 299.529 150.222 284.526C150.222 284.38 150.079 284.235 150.079 284.235C150.079 284.235 145.066 308.559 140.627 316.571C130.03 335.506 110.554 346.721 110.554 346.721Z" fill="url(#paint3_linear_126_9)"/>
<path d="M78.9063 258.454C77.9039 276.078 85.3505 286.565 85.3505 286.565C85.3505 286.565 107.404 286.128 116.426 271.708C131.462 247.529 111.127 207.474 111.127 207.474C111.127 207.474 105.829 215.922 97.666 225.098C88.3577 235.586 79.6223 244.325 78.9063 258.454Z" fill="url(#paint4_linear_126_9)"/>
<path d="M83.2024 282.633L85.3504 286.42C85.3504 286.42 107.404 285.983 116.426 271.563C125.877 256.414 121.438 235.003 116.712 221.166C116.712 221.02 116.569 220.874 116.569 220.874C116.569 220.874 113.275 244.325 109.695 252.19C100.96 270.834 83.2024 282.633 83.2024 282.633Z" fill="url(#paint5_linear_126_9)"/>
<path d="M57.569 264.426C66.7341 279.574 64.8724 292.246 64.8724 292.246C64.8724 292.246 45.1104 302.442 30.5036 294.139C6.01583 280.156 5.2998 235.003 5.2998 235.003C5.2998 235.003 13.892 239.955 25.3483 244.034C38.523 248.695 50.2657 252.336 57.569 264.426Z" fill="url(#paint6_linear_126_9)"/>
<path d="M65.0157 287.876L64.8725 292.246C64.8725 292.246 45.1105 302.442 30.5037 294.139C15.1809 285.4 9.16639 264.28 6.73193 249.86C6.73193 249.714 6.73193 249.569 6.73193 249.569C6.73193 249.569 20.4795 268.65 27.3532 273.748C43.8216 285.983 65.0157 287.876 65.0157 287.876Z" fill="url(#paint7_linear_126_9)"/>
<path d="M75.7557 333.612C87.3552 348.032 87.3552 361.578 87.3552 361.578C87.3552 361.578 68.1659 375.124 51.8408 368.57C24.3457 357.5 17.1855 310.453 17.1855 310.453C17.1855 310.453 26.9234 314.386 39.3821 317.007C53.7024 320.066 66.5907 322.105 75.7557 333.612Z" fill="url(#paint8_linear_126_9)"/>
<path d="M86.7825 357.063L87.3553 361.724C87.3553 361.724 68.1661 375.27 51.8409 368.715C34.5133 361.724 25.3483 340.749 20.7657 325.893C20.7657 325.747 20.6226 325.601 20.6226 325.601C20.6226 325.601 37.6638 343.517 45.5399 347.887C64.586 358.083 86.7825 357.063 86.7825 357.063Z" fill="url(#paint9_linear_126_9)"/>
<path d="M99.6707 403.09C115.137 413.141 119.146 426.104 119.146 426.104C119.146 426.104 105.112 445.039 87.4984 443.874C57.8553 442.126 36.8044 399.595 36.8044 399.595C36.8044 399.595 47.2583 400.177 59.8602 398.721C74.6101 397.119 87.3552 395.079 99.6707 403.09Z" fill="url(#paint10_linear_126_9)"/>
<path d="M117.285 421.88L119.146 426.104C119.146 426.104 105.112 445.039 87.4983 443.874C68.8819 442.709 53.7023 425.667 44.9669 412.995C44.9669 412.849 44.8237 412.704 44.8237 412.704C44.8237 412.704 66.4474 424.356 75.326 425.959C96.5201 429.891 117.285 421.88 117.285 421.88Z" fill="url(#paint11_linear_126_9)"/>
<path d="M39.382 210.387C46.5422 226.555 57.8553 232.235 57.8553 232.235C57.8553 232.235 77.3309 221.457 78.763 204.415C81.1974 175.866 44.9669 149.794 44.9669 149.794C44.9669 149.794 44.1077 159.844 40.9572 171.788C37.3772 185.625 33.6539 197.424 39.382 210.387Z" fill="url(#paint12_linear_126_9)"/>
<path d="M53.2728 226.555C53.8457 228.885 57.7122 232.236 57.7122 232.236C57.7122 232.236 77.1878 221.457 78.6199 204.415C80.1951 186.499 66.4476 169.603 56.1369 159.407C55.9937 159.262 55.8505 159.116 55.8505 159.116C55.8505 159.116 63.5835 181.401 63.8699 190.141C64.2995 203.104 56.4233 212.718 53.4161 220C52.9865 221.311 52.5568 223.787 53.2728 226.555Z" fill="url(#paint13_linear_126_9)"/>
<path d="M168.838 217.233C160.246 220.729 142.775 214.174 138.765 205.726C136.76 201.502 138.192 197.569 142.632 195.53C150.794 191.889 167.836 196.695 172.848 204.124C176.428 209.513 174.853 214.757 168.838 217.233Z" fill="#23363C"/>
<path d="M186.882 186.791C177.717 187.665 162.823 176.158 161.391 166.981C160.675 162.32 163.11 158.97 167.979 158.388C176.857 157.222 191.751 166.836 194.471 175.43C196.476 181.547 193.326 186.062 186.882 186.791Z" fill="#23363C"/>
<path d="M211.513 157.659C202.348 156.057 191.035 141.055 191.894 131.878C192.323 127.072 195.617 124.595 200.486 125.178C209.365 126.343 221.25 139.598 221.823 148.629C222.11 155.183 217.957 158.825 211.513 157.659Z" fill="#23363C"/>
<path d="M245.309 137.268C236.86 133.626 229.127 116.293 232.134 107.554C233.709 103.038 237.432 101.29 242.015 103.184C250.321 106.388 258.913 122.119 257.338 131.004C256.192 137.268 251.323 139.889 245.309 137.268Z" fill="#23363C"/>
<path d="M282.685 127.8C276.956 120.517 278.388 101.436 285.119 95.1729C288.556 91.9684 292.709 92.2597 295.859 96.0468C301.587 102.893 301.874 120.954 296.289 127.946C292.136 133.189 286.694 133.044 282.685 127.8Z" fill="#23363C"/>
<path d="M346.267 109.156C349.131 118.041 341.398 135.374 332.949 138.87C328.653 140.618 324.93 138.87 323.211 134.209C320.061 125.761 326.075 108.719 333.665 104.058C339.25 100.853 344.262 102.893 346.267 109.156Z" fill="#23363C"/>
<path d="M387.796 134.937C387.223 144.259 373.905 157.514 364.74 157.659C360.015 157.659 357.151 154.746 357.294 149.648C357.437 140.618 369.036 127.072 377.915 125.615C384.073 124.595 388.082 128.237 387.796 134.937Z" fill="#23363C"/>
<path d="M420.303 169.749C417.296 178.634 400.827 187.665 392.092 185.188C387.509 184.023 385.648 180.236 387.08 175.43C389.657 166.836 404.407 156.931 413.286 157.951C419.444 158.825 422.308 163.486 420.303 169.749Z" fill="#23363C"/>
<path d="M442.07 207.328C436.915 215.194 418.728 219.418 410.852 214.757C406.842 212.426 405.84 208.202 408.417 204.124C413.143 196.404 429.898 190.869 438.204 194.074C444.075 196.55 445.65 201.793 442.07 207.328Z" fill="#23363C"/>
<path d="M424.599 103.038C416.723 111.195 420.017 121.245 420.876 123.285C422.308 126.926 431.187 137.85 445.077 134.063C468.276 127.509 473.145 91.5314 473.145 91.5314C473.145 91.5314 465.985 91.9684 455.531 92.988C443.359 94.1533 432.762 94.5902 424.599 103.038Z" fill="url(#paint14_linear_126_9)"/>
<path d="M423.024 119.061C421.592 119.934 420.59 121.1 421.162 123.576C421.735 126.635 430.757 138.141 445.793 134.354C460.543 130.713 467.417 115.273 470.997 101.436C470.997 101.29 471.427 99.9795 471.427 99.9795C471.427 99.9795 454.672 112.943 447.941 115.71C437.774 119.934 435.769 118.915 429.039 118.624C427.75 118.478 424.743 117.895 423.024 119.061Z" fill="url(#paint15_linear_126_9)"/>
<path d="M379.49 69.5373C376.053 80.4616 383.5 87.89 385.075 89.3466C387.939 91.9684 400.684 97.7947 411.425 87.89C429.325 71.4309 417.726 37.0559 417.726 37.0559C417.726 37.0559 411.425 40.6974 402.689 46.378C392.379 52.9325 383.07 58.3218 379.49 69.5373Z" fill="url(#paint16_linear_126_9)"/>
<path d="M385.075 84.3943C384.216 85.8508 383.93 87.3074 385.362 89.2009C387.223 91.6771 400.398 97.9403 412.141 87.5987C423.597 77.5484 423.024 60.798 420.16 46.6693C420.16 46.5236 419.874 45.2127 419.874 45.2127C419.874 45.2127 410.565 64.4394 405.84 69.9743C398.679 78.2767 396.388 78.2767 390.23 81.1898C389.085 81.9181 386.078 82.7921 385.075 84.3943Z" fill="url(#paint17_linear_126_9)"/>
<path d="M270.369 45.2127C272.374 56.4283 282.255 59.487 284.403 60.0697C288.127 60.9436 302.16 60.0697 307.029 46.378C315.335 23.3643 289.272 -1.543 289.272 -1.543C289.272 -1.543 285.406 4.57458 280.25 13.8966C274.093 24.5295 268.364 33.5602 270.369 45.2127Z" fill="url(#paint18_linear_126_9)"/>
<path d="M282.112 55.8456C281.969 57.5935 282.398 59.0501 284.547 60.0697C287.411 61.3806 301.731 60.6523 307.459 46.0866C313.044 31.8123 304.738 17.101 295.716 6.03113L294.857 4.8659C294.857 4.8659 295.43 26.2774 293.712 33.4145C291.134 44.1931 289.129 45.3584 284.976 50.7477C284.547 51.6216 282.255 53.8064 282.112 55.8456Z" fill="url(#paint19_linear_126_9)"/>
<path d="M204.639 69.1004C208.649 79.7333 201.632 87.5987 200.2 89.2009C197.479 91.9684 185.02 98.3773 173.85 89.2009C155.091 73.7614 164.828 38.8038 164.828 38.8038C164.828 38.8038 171.273 42.0083 180.438 47.2519C190.892 53.2238 200.343 58.0305 204.639 69.1004Z" fill="url(#paint20_linear_126_9)"/>
<path d="M199.77 84.3943C200.772 85.8508 201.202 87.3074 199.77 89.2009C198.052 91.8228 185.306 98.6686 172.991 89.2009C160.962 79.8789 160.675 62.9828 162.824 48.7085C162.824 48.5628 162.967 47.2519 162.967 47.2519C162.967 47.2519 173.277 65.8959 178.29 71.2852C185.879 79.2963 188.171 79.1507 194.472 81.6268C195.617 81.9181 198.624 82.7921 199.77 84.3943Z" fill="url(#paint21_linear_126_9)"/>
<path d="M153.802 103.184C161.391 111.632 157.668 121.537 156.809 123.576C155.234 127.217 145.925 137.85 132.178 133.48C109.122 126.198 105.685 89.9292 105.685 89.9292C105.685 89.9292 112.845 90.5118 123.156 91.9684C135.328 93.5706 145.925 94.4446 153.802 103.184Z" fill="url(#paint22_linear_126_9)"/>
<path d="M154.804 119.206C156.236 120.08 157.095 121.391 156.522 123.722C155.806 126.78 146.498 137.996 131.605 133.626C116.998 129.402 110.697 113.817 107.547 99.6882C107.547 99.5425 107.26 98.2316 107.26 98.2316C107.26 98.2316 123.586 111.778 130.173 114.836C140.054 119.352 142.202 118.478 148.933 118.478C150.078 118.478 153.086 118.041 154.804 119.206Z" fill="url(#paint23_linear_126_9)"/>
<path d="M207.216 332.447C225.833 320.795 247.743 314.094 271.228 314.094C304.308 314.094 334.381 327.495 356.434 349.198C356.721 348.906 357.15 348.615 357.437 348.324C379.776 328.806 393.954 299.966 393.954 267.63C393.954 209.076 347.269 161.592 289.702 161.592C232.134 161.592 185.449 209.076 185.449 267.63C185.449 291.955 193.469 314.24 206.93 332.156C207.073 332.301 207.073 332.447 207.216 332.447Z" fill="url(#paint24_linear_126_9)"/>
<path d="M207.216 332.447C225.833 320.795 247.743 314.094 271.228 314.094C304.308 314.094 334.381 327.495 356.434 349.198C356.721 348.906 357.15 348.615 357.437 348.324C379.776 328.806 393.954 299.966 393.954 267.63C393.954 245.636 387.366 225.098 376.053 208.202C376.053 208.202 372.33 203.541 336.386 205.143C304.595 206.454 267.075 216.505 232.85 229.177C206.644 238.936 186.595 251.608 186.595 251.608C185.736 256.851 185.449 262.241 185.449 267.776C185.449 292.1 193.469 314.386 206.93 332.301C207.073 332.301 207.073 332.447 207.216 332.447Z" fill="url(#paint25_linear_126_9)"/>
<path d="M207.217 332.447C225.833 320.795 247.743 314.094 271.229 314.094C304.309 314.094 334.381 327.495 356.435 349.198C356.721 348.906 357.151 348.615 357.437 348.324C379.49 329.097 393.524 300.84 393.954 269.087C393.954 269.087 372.903 252.045 309.177 251.171C247.314 250.443 187.025 285.546 187.025 285.546C189.889 302.879 196.906 318.901 207.073 332.301C207.073 332.301 207.073 332.447 207.217 332.447Z" fill="url(#paint26_linear_126_9)"/>
<path d="M207.216 332.447C225.833 320.795 247.743 314.094 271.228 314.094C304.308 314.094 334.381 327.495 356.434 349.198C356.721 348.906 357.15 348.615 357.437 348.324C369.609 337.836 379.204 324.582 385.648 309.433C385.648 309.433 354.716 285.4 297.148 284.817C230.988 284.089 194.901 311.764 194.901 311.764C194.901 311.764 194.901 311.764 194.901 311.91C198.195 319.192 202.204 326.038 206.93 332.301C207.073 332.301 207.073 332.447 207.216 332.447Z" fill="url(#paint27_linear_126_9)"/>
<path d="M288.843 584.287C314.762 584.287 342.401 567.1 366.029 560.108C381.925 504.759 295.716 427.561 215.093 427.561C163.54 427.561 118.144 454.07 91.5083 494.417C139.768 549.621 210.224 584.287 288.843 584.287Z" fill="url(#paint28_linear_126_9)"/>
<path d="M288.842 584.287C311.469 584.287 333.522 581.374 354.43 575.985C347.842 516.557 289.558 447.807 217.098 447.807C170.127 447.807 128.741 471.549 103.824 507.672C151.367 555.01 216.811 584.287 288.842 584.287Z" fill="url(#paint29_linear_126_9)"/>
<path d="M288.842 584.287C313.76 584.287 337.818 580.791 360.587 574.382C340.252 525.15 292.279 490.63 236.144 490.63C196.619 490.63 160.962 507.817 136.331 535.346C179.435 566.08 231.991 584.287 288.842 584.287Z" fill="url(#paint30_linear_126_9)"/>
<path d="M154.231 547.29C193.469 570.741 239.437 584.287 288.413 584.287C308.175 584.287 327.508 582.102 346.124 577.878C323.784 540.736 283.401 515.974 237.433 515.974C205.641 515.974 176.571 527.772 154.231 547.29Z" fill="url(#paint31_linear_126_9)"/>
<path d="M187.884 562.439C187.884 562.439 226.549 540.007 239.437 532.579C271.228 514.226 327.221 500.972 327.221 500.972L368.034 513.935C368.034 513.935 373.905 519.47 371.614 519.907C338.82 526.461 287.84 549.184 258.626 564.186C231.847 577.878 187.884 562.439 187.884 562.439Z" fill="url(#paint32_linear_126_9)"/>
<path d="M244.163 572.343C244.163 572.343 277.816 552.825 289.129 546.271C316.767 530.248 365.6 518.742 365.6 518.742L401.114 529.957C401.114 529.957 406.126 534.764 404.264 535.055C375.624 540.736 331.231 560.545 305.884 573.654C282.398 585.889 244.163 572.343 244.163 572.343Z" fill="url(#paint33_linear_126_9)"/>
<path d="M539.878 382.262C537.3 382.99 534.723 392.458 534.723 392.458C534.723 392.458 532.431 384.009 529.424 381.97C525.558 379.348 520.545 382.99 520.259 384.883C518.541 393.331 517.538 404.693 515.533 414.452C514.531 414.16 513.672 413.869 512.956 413.578C502.359 409.791 495.485 402.945 493.48 391.292C492.621 386.049 493.05 380.805 492.764 375.561C492.621 370.9 489.9 367.259 486.32 366.968C483.599 366.822 481.165 367.259 481.165 367.259C476.868 367.987 476.009 371.337 475.723 374.833C475.436 380.222 475.007 385.757 475.866 391.001C476.582 396.245 476.582 400.469 480.735 409.645C485.747 420.86 495.198 427.415 506.368 431.348C506.798 431.348 507.944 431.639 509.089 431.93C503.218 443.729 497.203 455.09 491.046 464.557C487.609 463.538 479.589 454.507 476.868 451.74C470.854 445.476 465.555 438.339 458.395 433.387C453.956 428.872 449.373 424.793 444.075 421.152C431.33 412.412 417.153 406.732 402.546 402.508C380.636 396.245 361.446 385.175 344.548 369.589C327.364 353.713 307.888 341.915 284.546 337.691C276.813 336.234 268.937 336.671 261.204 335.506C256.478 334.778 251.896 340.458 252.469 345.265C253.185 352.111 256.335 355.461 262.923 356.189C270.369 357.063 277.959 356.917 284.976 359.248C302.304 364.928 317.483 374.105 330.944 386.631C348.701 403.236 369.036 415.326 392.378 422.317C412.141 428.289 430.9 436.591 446.509 450.866C452.381 457.42 458.538 463.683 463.551 470.966C466.128 474.753 470.997 480.143 472.572 484.949C469.279 487.571 465.126 490.339 460.543 493.543C460.543 493.543 459.684 493.98 458.109 494.563C455.388 491.358 451.808 487.571 448.944 484.512C443.072 478.249 424.742 464.412 422.022 462.955C409.133 455.818 394.956 452.759 381.209 448.535C379.06 447.661 376.912 446.642 374.908 445.768C366.745 442.126 358.153 439.213 350.849 433.678C346.124 430.037 341.828 425.813 336.959 422.317C334.954 420.861 333.092 419.258 331.231 417.656C325.932 413.432 321.35 408.334 315.335 404.984C309.607 400.469 304.165 395.662 298.151 391.584C285.262 382.844 271.085 378.183 255.619 376.872C250.75 376.435 245.881 375.998 241.156 376.727C235.428 377.455 231.131 382.699 231.561 388.088C231.991 393.477 236 397.555 241.442 397.555C264.211 397.555 283.83 405.858 301.158 420.424C310.036 428.289 319.631 435.28 327.937 443.874C344.119 460.625 367.604 467.908 376.769 470.529C389.944 474.316 403.119 478.103 415.148 484.804C416.437 485.823 417.725 486.697 418.871 487.862C423.883 492.815 430.184 496.602 433.335 503.302C422.308 506.215 409.563 508.254 398.536 506.506C338.82 496.602 270.799 459.605 222.969 462.227C178.433 464.703 138.622 483.638 113.418 516.994C120.722 523.548 128.311 529.666 136.188 535.346C160.819 507.963 196.476 490.63 236 490.63C288.126 490.63 281.396 510.294 390.946 531.122C384.502 533.89 378.058 536.657 371.614 539.134C328.51 555.738 286.265 562.293 284.26 562.439C248.602 564.623 213.374 563.458 183.301 562.439C211.369 575.256 245.452 584.724 291.563 584.724C418.441 584.724 526.274 487.862 546.036 394.497C547.754 386.486 545.606 380.514 539.878 382.262Z" fill="#223137"/>
<path d="M500.783 254.667C502.645 264.717 511.524 267.339 513.385 267.776C516.679 268.504 529.138 267.63 533.577 255.249C540.88 234.712 517.395 212.572 517.395 212.572C517.395 212.572 513.958 218.107 509.376 226.409C504.077 236.023 498.922 244.179 500.783 254.667Z" fill="url(#paint34_linear_126_9)"/>
<path d="M518.397 267.776C520.975 268.941 529.854 265.008 534.007 254.958C538.159 244.908 531.429 229.177 523.266 219.272L522.407 218.252C522.407 218.252 522.264 239.227 521.691 243.742C520.402 253.647 516.536 266.902 518.397 267.776Z" fill="url(#paint35_linear_126_9)"/>
<path d="M501.643 321.523C503.504 331.573 512.383 334.195 514.245 334.632C517.538 335.36 529.997 334.486 534.436 322.105C541.74 301.568 518.254 279.428 518.254 279.428C518.254 279.428 514.817 284.963 510.235 293.266C504.793 303.024 499.638 311.181 501.643 321.523Z" fill="url(#paint36_linear_126_9)"/>
<path d="M519.257 334.778C521.834 335.943 530.713 332.01 534.866 321.96C539.019 311.909 532.288 296.179 524.126 286.274L523.266 285.254C523.266 285.254 523.123 306.229 522.55 310.744C521.261 320.649 517.252 333.758 519.257 334.778Z" fill="url(#paint37_linear_126_9)"/>
<path d="M500.497 387.942C502.359 397.992 511.237 400.614 513.099 401.051C516.393 401.78 528.851 400.906 533.291 388.525C540.594 367.987 517.109 345.848 517.109 345.848C517.109 345.848 513.672 351.382 509.089 359.685C503.791 369.298 498.635 377.601 500.497 387.942Z" fill="url(#paint38_linear_126_9)"/>
<path d="M518.111 401.051C520.689 402.217 529.567 398.284 533.72 388.233C537.873 378.183 531.143 362.452 522.98 352.548L522.121 351.528C522.121 351.528 521.978 372.503 521.405 377.018C520.116 386.923 516.249 400.177 518.111 401.051Z" fill="url(#paint39_linear_126_9)"/>
<path d="M52.2704 616.04C57.8553 620.847 61.4354 627.401 61.4354 634.538C61.4354 637.16 59.1441 639.199 56.1368 639.199H47.8311C44.967 639.199 42.6757 637.16 42.6757 634.538C42.6757 632.208 41.5301 630.023 39.5253 628.421C37.3772 626.673 34.5131 625.508 31.0763 625.508C27.7826 625.508 24.7753 626.527 22.6273 628.421C20.6224 630.023 19.4768 632.208 19.4768 634.538C19.4768 642.695 28.3554 649.541 37.0908 656.241C49.2631 665.563 61.4354 674.74 61.4354 690.762C61.4354 698.045 57.8553 704.599 52.2704 709.26C46.8287 713.921 39.2388 716.689 31.0763 716.689C22.9137 716.689 15.4671 713.775 10.0254 709.26C4.29722 704.599 0.860352 697.899 0.860352 690.762C0.860352 689.597 1.43315 688.286 2.43558 687.412C3.438 686.538 4.72683 686.101 6.01566 686.101H14.4647C15.7535 686.101 17.1855 686.538 18.0448 687.412C19.0472 688.286 19.62 689.597 19.62 690.762C19.62 693.238 20.7656 695.423 22.7705 697.025C24.9185 698.773 27.7826 699.938 31.2195 699.938C34.6563 699.938 37.6636 698.773 39.6685 697.025C41.6733 695.423 42.819 693.238 42.819 690.762C42.819 682.605 33.9403 675.905 25.2049 669.205C13.0326 659.883 0.860352 650.706 0.860352 634.684C0.860352 627.401 4.44043 620.847 10.0254 616.186C15.4671 611.67 23.0569 608.757 31.0763 608.757C39.382 608.612 46.8287 611.525 52.2704 616.04Z" fill="#223137"/>
<path d="M88.6439 608.029C89.7895 608.029 91.0784 608.466 91.9376 609.34C92.94 610.068 93.3696 611.233 93.3696 612.399V689.014C93.3696 691.927 94.6584 694.695 96.8065 696.588C98.8113 698.482 101.819 699.647 104.969 699.647C108.12 699.647 111.127 698.482 113.132 696.588C115.28 694.695 116.569 691.927 116.569 689.014V612.399C116.569 611.233 116.998 610.068 118.001 609.34C118.86 608.466 120.005 608.029 121.294 608.029H130.602C131.891 608.029 133.037 608.466 133.896 609.34C134.755 610.068 135.185 611.233 135.185 612.399V689.014C135.185 696.734 131.891 703.58 126.306 708.678C120.865 713.63 113.275 716.834 104.969 716.834C96.6633 716.834 89.0735 713.775 83.6318 708.678C78.1901 703.58 74.7532 696.734 74.7532 689.014V612.399C74.7532 611.233 75.1828 610.068 76.042 609.34C76.9012 608.466 78.1901 608.029 79.3357 608.029H88.6439Z" fill="#223137"/>
<path d="M164.255 608.612C166.403 608.612 168.408 609.922 169.124 611.816C172.561 620.992 182.585 647.648 187.311 660.174C187.454 660.611 188.027 661.048 188.743 660.902C189.316 660.757 189.889 660.32 189.889 659.737V613.273C189.889 610.651 192.18 608.612 195.044 608.612H203.493C206.357 608.612 208.648 610.796 208.648 613.273V710.862C208.648 712.465 207.932 713.921 206.644 715.086C205.498 716.106 203.779 716.834 202.061 716.834H194.614C191.75 716.834 189.316 715.232 188.314 712.756C184.59 702.851 175.139 677.361 170.556 665.126C170.27 664.689 169.84 664.252 169.124 664.398C168.551 664.544 167.979 664.981 167.979 665.563V712.173C167.979 713.484 167.406 714.649 166.403 715.523C165.401 716.397 164.112 716.834 162.823 716.834H154.374C151.51 716.834 149.219 714.795 149.219 712.173V613.273C149.219 610.651 151.51 608.612 154.374 608.612H164.255Z" fill="#223137"/>
<path d="M332.376 616.623C337.818 621.721 341.255 628.567 341.255 636.141V636.432C341.255 639.054 338.963 641.239 336.099 641.239H327.794C324.93 641.239 322.638 639.054 322.638 636.432V636.141C322.638 633.228 321.349 630.606 319.201 628.712C317.053 626.819 314.189 625.653 311.039 625.653C307.888 625.653 304.881 626.819 302.876 628.712C300.728 630.606 299.583 633.228 299.583 636.141V689.305C299.583 694.403 302.447 697.608 306.027 698.773C307.602 699.356 309.32 699.647 311.039 699.647C312.757 699.647 314.619 699.356 316.051 698.773C319.774 697.462 322.638 694.258 322.638 689.305V675.468C322.638 674.303 322.065 672.992 321.063 672.263C320.061 671.389 318.772 670.953 317.483 670.953H316.194C314.905 670.953 313.473 670.516 312.614 669.496C311.612 668.622 311.039 667.457 311.039 666.292V658.572C311.039 655.95 313.33 653.911 316.194 653.911H336.243C337.531 653.911 338.963 654.348 339.966 655.222C340.968 656.096 341.398 657.407 341.398 658.572V689.305V711.736C341.398 714.358 339.107 716.397 336.243 716.397H324.5C323.497 716.397 322.638 715.669 322.638 714.649C318.915 715.96 314.905 716.689 311.039 716.689C307.029 716.689 302.876 715.96 299.01 714.504C288.842 710.717 280.68 702.269 280.68 689.16V635.995C280.68 628.421 284.117 621.429 289.558 616.477C295 611.525 302.59 608.32 310.896 608.32C319.201 608.32 326.791 611.67 332.376 616.623Z" fill="#223137"/>
<path d="M384.359 608.32C392.665 608.32 400.255 611.379 405.696 616.477C411.138 621.429 414.575 628.421 414.575 635.995V650.852C414.575 661.63 404.98 675.614 393.238 677.944C392.665 677.944 392.235 678.235 392.092 678.818C391.806 679.255 391.949 679.692 392.235 680.129C395.958 685.518 406.842 701.395 413.143 710.425C414.002 711.736 414.002 713.339 413.286 714.649C412.427 715.96 410.852 716.834 409.276 716.834H398.536C396.961 716.834 395.529 716.106 394.67 714.941C390.517 708.823 377.915 690.47 373.905 684.644C373.762 684.499 373.476 684.353 373.189 684.499C372.903 684.499 372.76 684.79 372.76 685.081V712.756C372.76 715.086 370.755 716.98 368.177 716.98H358.582C357.294 716.98 356.148 716.543 355.289 715.815C354.429 715.086 354 713.921 354 712.756C354 695.568 354 629.877 354 612.544C354 610.214 356.148 608.32 358.582 608.32H384.359ZM377.199 625.362C374.764 625.362 372.616 627.256 372.616 629.586V657.261C372.616 659.591 374.621 661.339 377.199 661.339H384.359C387.509 661.339 390.517 660.174 392.522 658.28C394.67 656.387 395.958 653.765 395.958 650.852V635.995C395.958 633.082 394.67 630.46 392.522 628.566C389.514 625.653 385.934 625.362 382.068 625.362C380.349 625.216 378.917 625.362 377.199 625.362Z" fill="#223137"/>
<path d="M467.274 608.612C469.279 608.612 470.854 609.777 471.283 611.525C475.007 626.527 492.048 693.966 496.63 712.173C496.917 713.339 496.63 714.504 495.914 715.378C495.198 716.252 493.91 716.834 492.764 716.834H482.024C480.162 716.834 478.444 715.669 478.014 713.921C476.868 709.406 474.72 700.666 473.575 696.734C473.288 695.568 472.286 694.84 470.854 694.84H450.949C449.66 694.84 448.657 695.568 448.228 696.734C447.225 700.521 445.077 709.26 443.932 713.921C443.502 715.669 441.784 716.834 439.922 716.834H429.182C427.893 716.834 426.747 716.397 426.031 715.378C425.315 714.504 424.886 713.339 425.315 712.173C429.898 693.966 446.939 626.382 450.662 611.525C451.092 609.777 452.81 608.612 454.672 608.612H467.274ZM459.254 653.474C457.679 660.028 455.245 669.642 453.956 674.594C453.669 675.322 453.956 676.051 454.385 676.779C454.958 677.361 455.674 677.653 456.534 677.653H465.269C466.128 677.653 466.844 677.361 467.417 676.779C467.847 676.196 468.133 675.322 467.847 674.594C466.701 669.642 464.123 660.028 462.548 653.474C462.405 652.746 461.546 652.163 460.83 652.163C460.114 652.163 459.398 652.746 459.254 653.474Z" fill="#223137"/>
<path d="M520.832 608.612C522.121 608.612 523.553 609.049 524.555 610.068C525.558 610.942 525.987 612.107 525.987 613.418V712.173C525.987 713.339 525.414 714.649 524.555 715.523C523.553 716.397 522.264 716.834 520.832 716.834H512.526C511.094 716.834 509.805 716.397 508.803 715.523C507.8 714.649 507.228 713.339 507.228 712.173V613.418C507.228 612.107 507.8 610.942 508.803 610.068C509.805 609.194 511.094 608.612 512.526 608.612H520.832Z" fill="#223137"/>
<path d="M553.625 608.612C555.774 608.612 557.778 609.922 558.494 611.816C561.931 620.992 571.956 647.648 576.681 660.174C576.824 660.611 577.397 661.048 578.113 660.902C578.686 660.757 579.259 660.32 579.259 659.737V613.273C579.259 610.651 581.55 608.612 584.414 608.612H592.863C595.727 608.612 598.019 610.796 598.019 613.273V710.862C598.019 712.465 597.303 713.921 596.014 715.086C594.868 716.106 593.15 716.834 591.431 716.834H583.985C581.121 716.834 578.686 715.232 577.684 712.756C573.96 702.851 564.509 677.361 559.926 665.126C559.64 664.689 559.21 664.252 558.494 664.398C557.922 664.544 557.349 664.981 557.349 665.563V712.173C557.349 713.484 556.776 714.649 555.774 715.523C554.771 716.397 553.482 716.834 552.193 716.834H543.744C540.88 716.834 538.589 714.795 538.589 712.173V613.273C538.589 610.651 540.88 608.612 543.744 608.612H553.625Z" fill="#223137"/>
</g>
<defs>
<linearGradient id="paint0_linear_126_9" x1="180.185" y1="350.2" x2="144.658" y2="407.957" gradientUnits="userSpaceOnUse">
<stop stop-color="#DB5C15"/>
<stop offset="1" stop-color="#D44F12"/>
</linearGradient>
<linearGradient id="paint1_linear_126_9" x1="186.244" y1="355.299" x2="146.246" y2="420.325" gradientUnits="userSpaceOnUse">
<stop stop-color="#9D310E"/>
<stop offset="1" stop-color="#6D251B"/>
</linearGradient>
<linearGradient id="paint2_linear_126_9" x1="148.749" y1="282.218" x2="118.561" y2="343.038" gradientUnits="userSpaceOnUse">
<stop stop-color="#DB5C15"/>
<stop offset="1" stop-color="#D44F12"/>
</linearGradient>
<linearGradient id="paint3_linear_126_9" x1="155.234" y1="286.744" x2="121.248" y2="355.218" gradientUnits="userSpaceOnUse">
<stop stop-color="#9D310E"/>
<stop offset="1" stop-color="#6D251B"/>
</linearGradient>
<linearGradient id="paint4_linear_126_9" x1="115.322" y1="219.147" x2="90.6738" y2="278.767" gradientUnits="userSpaceOnUse">
<stop stop-color="#DB5C15"/>
<stop offset="1" stop-color="#D44F12"/>
</linearGradient>
<linearGradient id="paint5_linear_126_9" x1="121.751" y1="223.008" x2="94.0009" y2="290.131" gradientUnits="userSpaceOnUse">
<stop stop-color="#9D310E"/>
<stop offset="1" stop-color="#6D251B"/>
</linearGradient>
<linearGradient id="paint6_linear_126_9" x1="7.15224" y1="247.262" x2="56.7556" y2="287.734" gradientUnits="userSpaceOnUse">
<stop stop-color="#DB5C15"/>
<stop offset="1" stop-color="#D44F12"/>
</linearGradient>
<linearGradient id="paint7_linear_126_9" x1="3.27936" y1="253.755" x2="59.1253" y2="299.32" gradientUnits="userSpaceOnUse">
<stop stop-color="#9D310E"/>
<stop offset="1" stop-color="#6D251B"/>
</linearGradient>
<linearGradient id="paint8_linear_126_9" x1="20.7389" y1="323.067" x2="78.1413" y2="358.177" gradientUnits="userSpaceOnUse">
<stop stop-color="#DB5C15"/>
<stop offset="1" stop-color="#D44F12"/>
</linearGradient>
<linearGradient id="paint9_linear_126_9" x1="17.6099" y1="330.405" x2="82.2364" y2="369.934" gradientUnits="userSpaceOnUse">
<stop stop-color="#9D310E"/>
<stop offset="1" stop-color="#6D251B"/>
</linearGradient>
<linearGradient id="paint10_linear_126_9" x1="44.156" y1="410.45" x2="109.326" y2="426.163" gradientUnits="userSpaceOnUse">
<stop stop-color="#DB5C15"/>
<stop offset="1" stop-color="#D44F12"/>
</linearGradient>
<linearGradient id="paint11_linear_126_9" x1="43.4243" y1="418.414" x2="116.796" y2="436.105" gradientUnits="userSpaceOnUse">
<stop stop-color="#9D310E"/>
<stop offset="1" stop-color="#6D251B"/>
</linearGradient>
<linearGradient id="paint12_linear_126_9" x1="53.9296" y1="158.35" x2="59.9767" y2="222.729" gradientUnits="userSpaceOnUse">
<stop stop-color="#FAB715"/>
<stop offset="0.5116" stop-color="#F7A40E"/>
<stop offset="1" stop-color="#D87007"/>
</linearGradient>
<linearGradient id="paint13_linear_126_9" x1="61.0324" y1="158.803" x2="67.8406" y2="231.283" gradientUnits="userSpaceOnUse">
<stop stop-color="#D87007"/>
<stop offset="0.5051" stop-color="#CA4F10"/>
<stop offset="1" stop-color="#AD380F"/>
</linearGradient>
<linearGradient id="paint14_linear_126_9" x1="470.143" y1="100.605" x2="428.257" y2="122.954" gradientUnits="userSpaceOnUse">
<stop stop-color="#FAB715"/>
<stop offset="0.5116" stop-color="#F7A40E"/>
<stop offset="1" stop-color="#D87007"/>
</linearGradient>
<linearGradient id="paint15_linear_126_9" x1="475.031" y1="106.965" x2="426.045" y2="133.103" gradientUnits="userSpaceOnUse">
<stop stop-color="#D87007"/>
<stop offset="0.5051" stop-color="#CA4F10"/>
<stop offset="1" stop-color="#C44210"/>
</linearGradient>
<linearGradient id="paint16_linear_126_9" x1="419.039" y1="46.488" x2="391.363" y2="85.4996" gradientUnits="userSpaceOnUse">
<stop stop-color="#FAB715"/>
<stop offset="0.5116" stop-color="#F7A40E"/>
<stop offset="1" stop-color="#D87007"/>
</linearGradient>
<linearGradient id="paint17_linear_126_9" x1="426.21" y1="49.9465" x2="393.841" y2="95.571" gradientUnits="userSpaceOnUse">
<stop stop-color="#D87007"/>
<stop offset="0.5051" stop-color="#CA4F10"/>
<stop offset="1" stop-color="#C44210"/>
</linearGradient>
<linearGradient id="paint18_linear_126_9" x1="294.744" y1="6.03447" x2="288.726" y2="53.7454" gradientUnits="userSpaceOnUse">
<stop stop-color="#FAB715"/>
<stop offset="0.5116" stop-color="#F7A40E"/>
<stop offset="1" stop-color="#D87007"/>
</linearGradient>
<linearGradient id="paint19_linear_126_9" x1="302.673" y1="5.68864" x2="295.634" y2="61.487" gradientUnits="userSpaceOnUse">
<stop stop-color="#D87007"/>
<stop offset="0.5051" stop-color="#CA4F10"/>
<stop offset="1" stop-color="#C44210"/>
</linearGradient>
<linearGradient id="paint20_linear_126_9" x1="163.804" y1="48.3715" x2="193.545" y2="85.7804" gradientUnits="userSpaceOnUse">
<stop stop-color="#FAB715"/>
<stop offset="0.5116" stop-color="#F7A40E"/>
<stop offset="1" stop-color="#D87007"/>
</linearGradient>
<linearGradient id="paint21_linear_126_9" x1="156.829" y1="52.2216" x2="191.612" y2="95.9716" gradientUnits="userSpaceOnUse">
<stop stop-color="#D87007"/>
<stop offset="0.5051" stop-color="#CA4F10"/>
<stop offset="1" stop-color="#C44210"/>
</linearGradient>
<linearGradient id="paint22_linear_126_9" x1="108.364" y1="98.9404" x2="149.436" y2="122.796" gradientUnits="userSpaceOnUse">
<stop stop-color="#FAB715"/>
<stop offset="0.5116" stop-color="#F7A40E"/>
<stop offset="1" stop-color="#D87007"/>
</linearGradient>
<linearGradient id="paint23_linear_126_9" x1="103.253" y1="105.114" x2="151.287" y2="133.014" gradientUnits="userSpaceOnUse">
<stop stop-color="#D87007"/>
<stop offset="0.5051" stop-color="#CA4F10"/>
<stop offset="1" stop-color="#C44210"/>
</linearGradient>
<linearGradient id="paint24_linear_126_9" x1="187.384" y1="242.185" x2="395.017" y2="261.487" gradientUnits="userSpaceOnUse">
<stop stop-color="#F3A313"/>
<stop offset="0.5116" stop-color="#FDC221"/>
<stop offset="1" stop-color="#F3A313"/>
</linearGradient>
<linearGradient id="paint25_linear_126_9" x1="185.681" y1="260.511" x2="393.314" y2="279.813" gradientUnits="userSpaceOnUse">
<stop stop-color="#EA770C"/>
<stop offset="0.5116" stop-color="#F38910"/>
<stop offset="1" stop-color="#C35011"/>
</linearGradient>
<linearGradient id="paint26_linear_126_9" x1="215.107" y1="289.019" x2="371.428" y2="302.755" gradientUnits="userSpaceOnUse">
<stop stop-color="#E05710"/>
<stop offset="0.5116" stop-color="#E55B12"/>
<stop offset="1" stop-color="#9E3114"/>
</linearGradient>
<linearGradient id="paint27_linear_126_9" x1="223.891" y1="306.775" x2="355.673" y2="319.025" gradientUnits="userSpaceOnUse">
<stop stop-color="#C7430F"/>
<stop offset="0.5116" stop-color="#CE450F"/>
<stop offset="1" stop-color="#7C2A18"/>
</linearGradient>
<linearGradient id="paint28_linear_126_9" x1="91.4456" y1="505.97" x2="367.913" y2="505.97" gradientUnits="userSpaceOnUse">
<stop stop-color="#D15E0A"/>
<stop offset="0.2877" stop-color="#E98215"/>
<stop offset="0.5116" stop-color="#FBB71F"/>
<stop offset="0.8084" stop-color="#EA8A0C"/>
<stop offset="1" stop-color="#E05710"/>
</linearGradient>
<linearGradient id="paint29_linear_126_9" x1="103.814" y1="516.023" x2="354.455" y2="516.023" gradientUnits="userSpaceOnUse">
<stop stop-color="#CB420E"/>
<stop offset="0.5116" stop-color="#D64C11"/>
<stop offset="1" stop-color="#C94214"/>
</linearGradient>
<linearGradient id="paint30_linear_126_9" x1="136.312" y1="537.395" x2="360.583" y2="537.395" gradientUnits="userSpaceOnUse">
<stop stop-color="#DD6014"/>
<stop offset="0.5116" stop-color="#FDB620"/>
<stop offset="1" stop-color="#F8AC19"/>
</linearGradient>
<linearGradient id="paint31_linear_126_9" x1="154.279" y1="550.148" x2="346.069" y2="550.148" gradientUnits="userSpaceOnUse">
<stop stop-color="#BE440E"/>
<stop offset="0.5116" stop-color="#E4650E"/>
<stop offset="1" stop-color="#E46F0B"/>
</linearGradient>
<linearGradient id="paint32_linear_126_9" x1="187.867" y1="535.364" x2="372.164" y2="535.364" gradientUnits="userSpaceOnUse">
<stop offset="0.1793" stop-color="#66271B"/>
<stop offset="0.4372" stop-color="#902A08"/>
<stop offset="0.7633" stop-color="#C8430E"/>
<stop offset="1" stop-color="#E35313"/>
</linearGradient>
<linearGradient id="paint33_linear_126_9" x1="244.17" y1="548.803" x2="404.72" y2="548.803" gradientUnits="userSpaceOnUse">
<stop offset="0.294" stop-color="#782516"/>
<stop offset="0.5763" stop-color="#AF3411"/>
<stop offset="1" stop-color="#DD4112"/>
</linearGradient>
<linearGradient id="paint34_linear_126_9" x1="522.411" y1="219.489" x2="517.412" y2="262.122" gradientUnits="userSpaceOnUse">
<stop stop-color="#FAB715"/>
<stop offset="0.5116" stop-color="#F7A40E"/>
<stop offset="1" stop-color="#D87007"/>
</linearGradient>
<linearGradient id="paint35_linear_126_9" x1="531.276" y1="219.328" x2="525.487" y2="268.703" gradientUnits="userSpaceOnUse">
<stop stop-color="#B3440D"/>
<stop offset="0.5051" stop-color="#CA4F10"/>
<stop offset="1" stop-color="#69271B"/>
</linearGradient>
<linearGradient id="paint36_linear_126_9" x1="523.17" y1="286.41" x2="518.171" y2="329.044" gradientUnits="userSpaceOnUse">
<stop stop-color="#FAB715"/>
<stop offset="0.5116" stop-color="#F7A40E"/>
<stop offset="1" stop-color="#D87007"/>
</linearGradient>
<linearGradient id="paint37_linear_126_9" x1="532.035" y1="286.249" x2="526.245" y2="335.624" gradientUnits="userSpaceOnUse">
<stop stop-color="#B3440D"/>
<stop offset="0.5051" stop-color="#CA4F10"/>
<stop offset="1" stop-color="#69271B"/>
</linearGradient>
<linearGradient id="paint38_linear_126_9" x1="522.141" y1="352.79" x2="517.142" y2="395.423" gradientUnits="userSpaceOnUse">
<stop stop-color="#FAB715"/>
<stop offset="0.5116" stop-color="#F7A40E"/>
<stop offset="1" stop-color="#D87007"/>
</linearGradient>
<linearGradient id="paint39_linear_126_9" x1="531.006" y1="352.629" x2="525.216" y2="402.004" gradientUnits="userSpaceOnUse">
<stop stop-color="#B3440D"/>
<stop offset="0.5051" stop-color="#CA4F10"/>
<stop offset="1" stop-color="#69271B"/>
</linearGradient>
<clipPath id="clip0_126_9">
<rect width="599" height="715" fill="white"/>
</clipPath>
</defs>
</svg>
